<svg xmlns="http://www.w3.org/2000/svg" width="34.689" height="21.747" viewBox="0 0 34.689 21.747">
  <path id="Icon_awesome-behance" data-name="Icon awesome-behance" d="M13.972,15.046a4.57,4.57,0,0,0,2.915-4.457c0-4.252-3.168-5.288-6.823-5.288H0V26.645H10.347c3.878,0,7.522-1.861,7.522-6.2a5.143,5.143,0,0,0-3.9-5.4Zm-9.281-6.1h4.4c1.692,0,3.216.476,3.216,2.439,0,1.813-1.186,2.541-2.861,2.541H4.691V8.945ZM9.708,23.02H4.691V17.142H9.8c2.066,0,3.373.861,3.373,3.047,0,2.156-1.56,2.831-3.469,2.831ZM31.3,8.524H22.644v-2.1H31.3v2.1Zm3.391,10.618c0-4.571-2.674-8.383-7.522-8.383-4.71,0-7.907,3.541-7.907,8.178,0,4.812,3.029,8.112,7.907,8.112,3.692,0,6.083-1.662,7.233-5.2H30.654c-.4,1.319-2.066,2.018-3.355,2.018-2.487,0-3.794-1.457-3.794-3.933H34.653C34.671,19.683,34.689,19.412,34.689,19.141ZM23.512,17.262a3.317,3.317,0,0,1,3.523-3.3c2.132,0,3.2,1.253,3.385,3.3Z" transform="translate(0 -5.302)" fill="#2874ba"/>
</svg>
