<svg xmlns="http://www.w3.org/2000/svg" width="24.458" height="24.457" viewBox="0 0 24.458 24.457">
  <path id="Icon_awesome-linkedin-in" data-name="Icon awesome-linkedin-in" d="M5.475,24.458H.4V8.129H5.475ZM2.937,5.9A2.951,2.951,0,1,1,5.873,2.937,2.961,2.961,0,0,1,2.937,5.9ZM24.452,24.458h-5.06V16.509c0-1.894-.038-4.324-2.636-4.324-2.636,0-3.04,2.058-3.04,4.187v8.085H8.651V8.129h4.863v2.227h.071a5.328,5.328,0,0,1,4.8-2.637c5.132,0,6.075,3.379,6.075,7.769v8.97Z" transform="translate(0 -0.001)" fill="#2874ba"/>
</svg>
