<svg xmlns="http://www.w3.org/2000/svg" width="137" height="137" viewBox="0 0 137 137">
  <g id="Group_34802" data-name="Group 34802" transform="translate(-1713 -757)">
    <path id="Path_37707" data-name="Path 37707" d="M63.3,0A63.3,63.3,0,1,1,0,63.3,63.3,63.3,0,0,1,63.3,0Z" transform="translate(1718 762)" fill="#1f72b1"/>
    <path id="Icon_simple-wechat" data-name="Icon simple-wechat" d="M70.359,35.063a19.767,19.767,0,0,0-9.241-9.417,25.438,25.438,0,0,0-22.8.09c-4.875,2.5-8.945,6.985-10.1,12.439A15.976,15.976,0,0,0,30.25,50.012c3.171,5.266,8.9,8.628,14.857,9.707a27.359,27.359,0,0,0,12.965-.852c2.517.974,4.758,2.552,7.2,3.724-.631-2.113-1.3-4.2-2.02-6.282A20.315,20.315,0,0,0,69.955,48.9,16.066,16.066,0,0,0,70.359,35.063ZM40.7,6.772A30.23,30.23,0,0,0,15.934,4.844,25.2,25.2,0,0,0,2.945,15.065a19.169,19.169,0,0,0-2.388,14.7c1.294,5.5,5.114,10.111,9.749,13.189-.9,2.54-1.748,5.078-2.555,7.636,2.914-1.524,5.828-3.117,8.745-4.665a32.463,32.463,0,0,0,10.939,1.548,18.407,18.407,0,0,1-.762-8.82,18.715,18.715,0,0,1,5.96-10.622C37.791,23.2,45.1,21.165,52.047,21.658A22.623,22.623,0,0,0,40.618,6.775H40.7Zm5.179,29.854a2.942,2.942,0,1,1-3.766-3.8,2.975,2.975,0,0,1,3.766,3.8Zm14.331.275a3.007,3.007,0,0,1-4.71.807,4.475,4.475,0,0,1-1.028-2.182c.311-1.369,1.255-2.788,2.78-2.854A3,3,0,0,1,60.164,36.9h.045ZM38.825,17.612c.024,2.872-3.811,4.665-5.963,2.717a3.664,3.664,0,1,1,5.957-2.753l.006.036Zm-18.109.729A3.673,3.673,0,1,1,15.931,14,3.693,3.693,0,0,1,20.716,18.341Z" transform="translate(1746.002 792.939)" fill="#fff"/>
    <g id="Path_56895" data-name="Path 56895" transform="translate(1713 757)" fill="none">
      <path d="M68.5,0A68.5,68.5,0,1,1,0,68.5,68.5,68.5,0,0,1,68.5,0Z" stroke="none"/>
      <path d="M 68.5 6 C 34.03738403320312 6 6 34.03738403320312 6 68.5 C 6 102.9626159667969 34.03738403320312 131 68.5 131 C 102.9626159667969 131 131 102.9626159667969 131 68.5 C 131 34.03738403320312 102.9626159667969 6 68.5 6 M 68.5 0 C 106.3314971923828 0 137 30.66850280761719 137 68.5 C 137 106.3314971923828 106.3314971923828 137 68.5 137 C 30.66850280761719 137 0 106.3314971923828 0 68.5 C 0 30.66850280761719 30.66850280761719 0 68.5 0 Z" stroke="none" fill="#fff"/>
    </g>
  </g>
</svg>
