<svg xmlns="http://www.w3.org/2000/svg" xmlns:xlink="http://www.w3.org/1999/xlink" width="66.246" height="66.246" viewBox="0 0 66.246 66.246">
  <defs>
    <linearGradient id="linear-gradient" x1="0.5" x2="0.5" y2="1" gradientUnits="objectBoundingBox">
      <stop offset="0" stop-color="#34a5dd"/>
      <stop offset="1" stop-color="#1760a2"/>
    </linearGradient>
  </defs>
  <path id="Icon_ionic-ios-arrow-dropleft-circle" data-name="Icon ionic-ios-arrow-dropleft-circle" d="M36.5,3.375A33.123,33.123,0,1,1,3.375,36.5,33.118,33.118,0,0,1,36.5,3.375ZM29.587,49.413a3.085,3.085,0,0,0,0,4.347,3.036,3.036,0,0,0,2.166.892,3.089,3.089,0,0,0,2.182-.908L48.9,38.727a3.07,3.07,0,0,0-.1-4.236L33.615,19.252A3.074,3.074,0,0,0,29.268,23.6L42.31,36.5Z" transform="translate(-3.375 -3.375)" fill="url(#linear-gradient)"/>
</svg>
